<svg id="Capa_1" enable-background="new 0 0 512 512" height="512" viewBox="0 0 512 512" width="512" xmlns="http://www.w3.org/2000/svg"><g id="XMLID_666_"><path id="XMLID_697_" d="m277.949 254.093v-90.585c17.023-6.157 29.223-22.479 29.223-41.6 0-24.384-19.838-44.223-44.223-44.223s-44.223 19.838-44.223 44.223c0 19.121 12.2 35.442 29.223 41.6v90.585h-247.949v257.903h512v-257.903zm-15-146.408c7.843 0 14.223 6.38 14.223 14.223s-6.38 14.223-14.223 14.223-14.223-6.38-14.223-14.223c.001-7.842 6.38-14.223 14.223-14.223zm219.051 374.311h-452v-197.903h452z"/><path id="XMLID_702_" d="m110.44 316.895h-30v132.299h65.852v-30h-35.852z"/><path id="XMLID_703_" d="m176.54 315.933h30v132.385h-30z"/><path id="XMLID_706_" d="m431.56 417.851h-42.748v-20.725h39.595v-30h-39.595v-20.725h42.748v-30h-72.748v131.45h72.748z"/><path id="XMLID_710_" d="m224.758 315.725 45.046 130.505h26.068l44.045-130.505h-32.354l-25.025 75.378-26.038-75.378z"/><path id="XMLID_711_" d="m311.889 183.821 21.213 21.213 10.606-10.607c39.987-39.987 39.987-105.051 0-145.039l-10.606-10.607-21.213 21.213 10.606 10.606c28.29 28.291 28.29 74.322 0 102.613z"/><path id="XMLID_712_" d="m182.19 194.427 10.606 10.607 21.213-21.213-10.606-10.606c-28.29-28.291-28.29-74.322 0-102.613l10.606-10.606-21.213-21.213-10.606 10.606c-39.987 39.987-39.987 105.051 0 145.038z"/><path id="XMLID_713_" d="m371.515 211.992-10.606 10.606 21.213 21.213 10.606-10.607c61.369-61.369 61.369-161.225 0-222.595l-10.607-10.605-21.213 21.213 10.606 10.606c49.673 49.673 49.673 130.497.001 180.169z"/><path id="XMLID_714_" d="m143.777 243.812 21.213-21.213-10.606-10.606c-24.062-24.062-37.314-56.055-37.314-90.084s13.252-66.022 37.314-90.084l10.606-10.606-21.213-21.215-10.606 10.607c-29.729 29.729-46.102 69.255-46.102 111.297 0 42.043 16.373 81.569 46.102 111.297z"/></g></svg>